<mxfile host="app.diagrams.net" modified="2024-02-12T15:43:25.403Z" agent="Mozilla/5.0 (Macintosh; Intel Mac OS X 10_15_7) AppleWebKit/537.36 (KHTML, like Gecko) Chrome/121.0.0.0 Safari/537.36" version="23.1.2" etag="Q4UXQo6sRBojrbXJhGwk" type="device">
  <diagram id="fc1f3b67-3c9b-b1b3-7705-706421d27264" name="ERD Habit Tracker app">
    <mxGraphModel dx="4328" dy="2102" grid="1" gridSize="10" guides="1" tooltips="1" connect="1" arrows="1" fold="1" page="1" pageScale="1" pageWidth="1169" pageHeight="827" math="0" shadow="0">
      <root>
        <mxCell id="0" />
        <mxCell id="1" parent="0" />
        <mxCell id="QNlY-ML3Uit1_wFqtahG-39" style="edgeStyle=orthogonalEdgeStyle;rounded=0;orthogonalLoop=1;jettySize=auto;html=1;exitX=0.5;exitY=1;exitDx=0;exitDy=0;entryX=0.5;entryY=0;entryDx=0;entryDy=0;" edge="1" parent="1" source="zQBrx2UrqbEsORAFY46q-156" target="QNlY-ML3Uit1_wFqtahG-27">
          <mxGeometry relative="1" as="geometry" />
        </mxCell>
        <mxCell id="QNlY-ML3Uit1_wFqtahG-40" style="edgeStyle=orthogonalEdgeStyle;rounded=0;orthogonalLoop=1;jettySize=auto;html=1;exitX=0.25;exitY=1;exitDx=0;exitDy=0;" edge="1" parent="1" source="zQBrx2UrqbEsORAFY46q-156" target="QNlY-ML3Uit1_wFqtahG-31">
          <mxGeometry relative="1" as="geometry">
            <Array as="points">
              <mxPoint x="-726.25" y="420" />
              <mxPoint x="-871.25" y="420" />
            </Array>
          </mxGeometry>
        </mxCell>
        <mxCell id="QNlY-ML3Uit1_wFqtahG-41" style="edgeStyle=orthogonalEdgeStyle;rounded=0;orthogonalLoop=1;jettySize=auto;html=1;exitX=0;exitY=0.75;exitDx=0;exitDy=0;entryX=1;entryY=0.5;entryDx=0;entryDy=0;" edge="1" parent="1" source="zQBrx2UrqbEsORAFY46q-156" target="QNlY-ML3Uit1_wFqtahG-30">
          <mxGeometry relative="1" as="geometry">
            <Array as="points">
              <mxPoint x="-760.75" y="380" />
              <mxPoint x="-755.75" y="380" />
              <mxPoint x="-755.75" y="410" />
              <mxPoint x="-923.75" y="410" />
            </Array>
          </mxGeometry>
        </mxCell>
        <mxCell id="QNlY-ML3Uit1_wFqtahG-45" style="edgeStyle=orthogonalEdgeStyle;rounded=0;orthogonalLoop=1;jettySize=auto;html=1;exitX=0;exitY=0.25;exitDx=0;exitDy=0;entryX=1;entryY=0.5;entryDx=0;entryDy=0;" edge="1" parent="1" source="zQBrx2UrqbEsORAFY46q-156" target="QNlY-ML3Uit1_wFqtahG-33">
          <mxGeometry relative="1" as="geometry">
            <Array as="points">
              <mxPoint x="-760.75" y="340" />
              <mxPoint x="-818.75" y="340" />
              <mxPoint x="-818.75" y="267" />
            </Array>
          </mxGeometry>
        </mxCell>
        <mxCell id="QNlY-ML3Uit1_wFqtahG-58" style="edgeStyle=orthogonalEdgeStyle;rounded=0;orthogonalLoop=1;jettySize=auto;html=1;exitX=0.25;exitY=0;exitDx=0;exitDy=0;entryX=0.5;entryY=1;entryDx=0;entryDy=0;" edge="1" parent="1" source="zQBrx2UrqbEsORAFY46q-156" target="QNlY-ML3Uit1_wFqtahG-36">
          <mxGeometry relative="1" as="geometry" />
        </mxCell>
        <mxCell id="QNlY-ML3Uit1_wFqtahG-76" style="edgeStyle=orthogonalEdgeStyle;rounded=0;orthogonalLoop=1;jettySize=auto;html=1;exitX=0.75;exitY=0;exitDx=0;exitDy=0;entryX=0;entryY=0.5;entryDx=0;entryDy=0;" edge="1" parent="1" source="zQBrx2UrqbEsORAFY46q-156" target="QNlY-ML3Uit1_wFqtahG-23">
          <mxGeometry relative="1" as="geometry" />
        </mxCell>
        <mxCell id="QNlY-ML3Uit1_wFqtahG-80" style="edgeStyle=orthogonalEdgeStyle;rounded=0;orthogonalLoop=1;jettySize=auto;html=1;exitX=1;exitY=0.5;exitDx=0;exitDy=0;entryX=0;entryY=0.5;entryDx=0;entryDy=0;" edge="1" parent="1" source="zQBrx2UrqbEsORAFY46q-156" target="QNlY-ML3Uit1_wFqtahG-79">
          <mxGeometry relative="1" as="geometry" />
        </mxCell>
        <mxCell id="QNlY-ML3Uit1_wFqtahG-98" style="edgeStyle=orthogonalEdgeStyle;rounded=0;orthogonalLoop=1;jettySize=auto;html=1;exitX=0.5;exitY=0;exitDx=0;exitDy=0;entryX=0;entryY=0.5;entryDx=0;entryDy=0;" edge="1" parent="1" source="zQBrx2UrqbEsORAFY46q-156" target="QNlY-ML3Uit1_wFqtahG-97">
          <mxGeometry relative="1" as="geometry">
            <Array as="points">
              <mxPoint x="-701.75" y="260" />
              <mxPoint x="-578.75" y="260" />
              <mxPoint x="-578.75" y="180" />
            </Array>
          </mxGeometry>
        </mxCell>
        <mxCell id="QNlY-ML3Uit1_wFqtahG-110" style="edgeStyle=orthogonalEdgeStyle;rounded=0;orthogonalLoop=1;jettySize=auto;html=1;exitX=0;exitY=0.25;exitDx=0;exitDy=0;" edge="1" parent="1" source="zQBrx2UrqbEsORAFY46q-156" target="QNlY-ML3Uit1_wFqtahG-108">
          <mxGeometry relative="1" as="geometry" />
        </mxCell>
        <mxCell id="QNlY-ML3Uit1_wFqtahG-137" style="edgeStyle=orthogonalEdgeStyle;rounded=0;orthogonalLoop=1;jettySize=auto;html=1;exitX=0.395;exitY=-0.024;exitDx=0;exitDy=0;entryX=0.5;entryY=1;entryDx=0;entryDy=0;exitPerimeter=0;" edge="1" parent="1" source="zQBrx2UrqbEsORAFY46q-156" target="QNlY-ML3Uit1_wFqtahG-136">
          <mxGeometry relative="1" as="geometry">
            <mxPoint x="-648.75" y="230" as="targetPoint" />
            <Array as="points">
              <mxPoint x="-713.75" y="240" />
              <mxPoint x="-639.75" y="240" />
            </Array>
          </mxGeometry>
        </mxCell>
        <mxCell id="QNlY-ML3Uit1_wFqtahG-169" style="edgeStyle=orthogonalEdgeStyle;rounded=0;orthogonalLoop=1;jettySize=auto;html=1;exitX=0;exitY=0.25;exitDx=0;exitDy=0;entryX=0;entryY=0.5;entryDx=0;entryDy=0;" edge="1" parent="1" source="zQBrx2UrqbEsORAFY46q-156" target="QNlY-ML3Uit1_wFqtahG-168">
          <mxGeometry relative="1" as="geometry">
            <Array as="points">
              <mxPoint x="-761" y="350" />
              <mxPoint x="-1130" y="350" />
              <mxPoint x="-1130" y="-150" />
            </Array>
          </mxGeometry>
        </mxCell>
        <mxCell id="zQBrx2UrqbEsORAFY46q-156" value="student" style="rounded=1;whiteSpace=wrap;html=1;fillColor=#dae8fc;strokeColor=#6c8ebf;" vertex="1" parent="1">
          <mxGeometry x="-761.25" y="340" width="120" height="60" as="geometry" />
        </mxCell>
        <mxCell id="zQBrx2UrqbEsORAFY46q-169" value="" style="edgeStyle=orthogonalEdgeStyle;rounded=0;orthogonalLoop=1;jettySize=auto;html=1;" edge="1" parent="1" source="zQBrx2UrqbEsORAFY46q-157" target="zQBrx2UrqbEsORAFY46q-168">
          <mxGeometry relative="1" as="geometry" />
        </mxCell>
        <mxCell id="zQBrx2UrqbEsORAFY46q-171" value="" style="edgeStyle=orthogonalEdgeStyle;rounded=0;orthogonalLoop=1;jettySize=auto;html=1;" edge="1" parent="1" source="zQBrx2UrqbEsORAFY46q-157" target="zQBrx2UrqbEsORAFY46q-170">
          <mxGeometry relative="1" as="geometry" />
        </mxCell>
        <mxCell id="QNlY-ML3Uit1_wFqtahG-171" style="edgeStyle=orthogonalEdgeStyle;rounded=0;orthogonalLoop=1;jettySize=auto;html=1;exitX=0;exitY=0.5;exitDx=0;exitDy=0;" edge="1" parent="1" source="zQBrx2UrqbEsORAFY46q-157" target="QNlY-ML3Uit1_wFqtahG-168">
          <mxGeometry relative="1" as="geometry" />
        </mxCell>
        <mxCell id="zQBrx2UrqbEsORAFY46q-157" value="student_ph" style="rounded=1;whiteSpace=wrap;html=1;fillColor=#dae8fc;strokeColor=#6c8ebf;" vertex="1" parent="1">
          <mxGeometry x="-833.75" y="-180" width="120" height="60" as="geometry" />
        </mxCell>
        <mxCell id="zQBrx2UrqbEsORAFY46q-179" style="edgeStyle=orthogonalEdgeStyle;rounded=0;orthogonalLoop=1;jettySize=auto;html=1;exitX=1;exitY=0.75;exitDx=0;exitDy=0;entryX=0;entryY=0.5;entryDx=0;entryDy=0;" edge="1" parent="1" source="zQBrx2UrqbEsORAFY46q-158" target="zQBrx2UrqbEsORAFY46q-178">
          <mxGeometry relative="1" as="geometry">
            <mxPoint x="-152.5" y="160" as="targetPoint" />
            <Array as="points">
              <mxPoint x="-222.5" y="170" />
            </Array>
          </mxGeometry>
        </mxCell>
        <mxCell id="zQBrx2UrqbEsORAFY46q-180" style="edgeStyle=orthogonalEdgeStyle;rounded=0;orthogonalLoop=1;jettySize=auto;html=1;exitX=0.75;exitY=0;exitDx=0;exitDy=0;entryX=0.5;entryY=1;entryDx=0;entryDy=0;" edge="1" parent="1" source="zQBrx2UrqbEsORAFY46q-158" target="zQBrx2UrqbEsORAFY46q-175">
          <mxGeometry relative="1" as="geometry">
            <Array as="points">
              <mxPoint x="-257.5" y="140" />
            </Array>
          </mxGeometry>
        </mxCell>
        <mxCell id="zQBrx2UrqbEsORAFY46q-181" style="edgeStyle=orthogonalEdgeStyle;rounded=0;orthogonalLoop=1;jettySize=auto;html=1;exitX=0.25;exitY=0;exitDx=0;exitDy=0;entryX=1;entryY=1;entryDx=0;entryDy=0;" edge="1" parent="1" source="zQBrx2UrqbEsORAFY46q-158" target="zQBrx2UrqbEsORAFY46q-174">
          <mxGeometry relative="1" as="geometry">
            <Array as="points">
              <mxPoint x="-334.5" y="140" />
              <mxPoint x="-334.5" y="115" />
              <mxPoint x="-335.5" y="115" />
            </Array>
          </mxGeometry>
        </mxCell>
        <mxCell id="QNlY-ML3Uit1_wFqtahG-99" style="edgeStyle=orthogonalEdgeStyle;rounded=0;orthogonalLoop=1;jettySize=auto;html=1;exitX=0;exitY=0.5;exitDx=0;exitDy=0;entryX=1;entryY=0.5;entryDx=0;entryDy=0;" edge="1" parent="1" source="zQBrx2UrqbEsORAFY46q-158" target="QNlY-ML3Uit1_wFqtahG-97">
          <mxGeometry relative="1" as="geometry">
            <mxPoint x="-468.75" y="170" as="targetPoint" />
            <Array as="points">
              <mxPoint x="-342.75" y="180" />
            </Array>
          </mxGeometry>
        </mxCell>
        <mxCell id="zQBrx2UrqbEsORAFY46q-158" value="attendance" style="rounded=1;whiteSpace=wrap;html=1;fillColor=#dae8fc;strokeColor=#6c8ebf;" vertex="1" parent="1">
          <mxGeometry x="-342.5" y="140" width="120" height="60" as="geometry" />
        </mxCell>
        <mxCell id="QNlY-ML3Uit1_wFqtahG-64" value="" style="edgeStyle=orthogonalEdgeStyle;rounded=0;orthogonalLoop=1;jettySize=auto;html=1;" edge="1" parent="1" source="zQBrx2UrqbEsORAFY46q-159" target="QNlY-ML3Uit1_wFqtahG-59">
          <mxGeometry relative="1" as="geometry" />
        </mxCell>
        <mxCell id="QNlY-ML3Uit1_wFqtahG-71" style="edgeStyle=orthogonalEdgeStyle;rounded=0;orthogonalLoop=1;jettySize=auto;html=1;exitX=1.005;exitY=0.191;exitDx=0;exitDy=0;entryX=0;entryY=0.5;entryDx=0;entryDy=0;exitPerimeter=0;" edge="1" parent="1" source="zQBrx2UrqbEsORAFY46q-159" target="QNlY-ML3Uit1_wFqtahG-70">
          <mxGeometry relative="1" as="geometry">
            <Array as="points">
              <mxPoint x="-249.75" y="350" />
              <mxPoint x="-218.75" y="350" />
            </Array>
          </mxGeometry>
        </mxCell>
        <mxCell id="QNlY-ML3Uit1_wFqtahG-75" style="edgeStyle=orthogonalEdgeStyle;rounded=0;orthogonalLoop=1;jettySize=auto;html=1;exitX=0.954;exitY=1.001;exitDx=0;exitDy=0;entryX=0;entryY=0.5;entryDx=0;entryDy=0;exitPerimeter=0;" edge="1" parent="1" source="zQBrx2UrqbEsORAFY46q-159" target="QNlY-ML3Uit1_wFqtahG-65">
          <mxGeometry relative="1" as="geometry">
            <Array as="points">
              <mxPoint x="-255.75" y="390" />
            </Array>
          </mxGeometry>
        </mxCell>
        <mxCell id="QNlY-ML3Uit1_wFqtahG-81" style="edgeStyle=orthogonalEdgeStyle;rounded=0;orthogonalLoop=1;jettySize=auto;html=1;exitX=0.25;exitY=0;exitDx=0;exitDy=0;entryX=0.468;entryY=1.081;entryDx=0;entryDy=0;entryPerimeter=0;" edge="1" parent="1" source="zQBrx2UrqbEsORAFY46q-159" target="QNlY-ML3Uit1_wFqtahG-68">
          <mxGeometry relative="1" as="geometry">
            <Array as="points">
              <mxPoint x="-358.75" y="340" />
              <mxPoint x="-358.75" y="320" />
              <mxPoint x="-423.75" y="320" />
            </Array>
          </mxGeometry>
        </mxCell>
        <mxCell id="QNlY-ML3Uit1_wFqtahG-94" style="edgeStyle=orthogonalEdgeStyle;rounded=0;orthogonalLoop=1;jettySize=auto;html=1;exitX=0.25;exitY=0;exitDx=0;exitDy=0;entryX=0.5;entryY=1;entryDx=0;entryDy=0;" edge="1" parent="1" source="zQBrx2UrqbEsORAFY46q-159" target="QNlY-ML3Uit1_wFqtahG-67">
          <mxGeometry relative="1" as="geometry">
            <Array as="points">
              <mxPoint x="-303.75" y="340" />
            </Array>
          </mxGeometry>
        </mxCell>
        <mxCell id="zQBrx2UrqbEsORAFY46q-159" value="parent" style="rounded=1;whiteSpace=wrap;html=1;fillColor=#dae8fc;strokeColor=#6c8ebf;" vertex="1" parent="1">
          <mxGeometry x="-370" y="340" width="120" height="60" as="geometry" />
        </mxCell>
        <mxCell id="QNlY-ML3Uit1_wFqtahG-120" style="edgeStyle=orthogonalEdgeStyle;rounded=0;orthogonalLoop=1;jettySize=auto;html=1;exitX=0.75;exitY=0;exitDx=0;exitDy=0;entryX=0.5;entryY=1;entryDx=0;entryDy=0;" edge="1" parent="1" source="zQBrx2UrqbEsORAFY46q-161" target="zQBrx2UrqbEsORAFY46q-197">
          <mxGeometry relative="1" as="geometry">
            <Array as="points">
              <mxPoint x="-868.75" y="629" />
              <mxPoint x="-868.75" y="620" />
              <mxPoint x="-842.75" y="620" />
            </Array>
          </mxGeometry>
        </mxCell>
        <mxCell id="QNlY-ML3Uit1_wFqtahG-121" style="edgeStyle=orthogonalEdgeStyle;rounded=0;orthogonalLoop=1;jettySize=auto;html=1;exitX=0.25;exitY=0;exitDx=0;exitDy=0;entryX=0.5;entryY=1;entryDx=0;entryDy=0;" edge="1" parent="1" source="zQBrx2UrqbEsORAFY46q-161" target="zQBrx2UrqbEsORAFY46q-196">
          <mxGeometry relative="1" as="geometry">
            <Array as="points">
              <mxPoint x="-943.75" y="629" />
            </Array>
          </mxGeometry>
        </mxCell>
        <mxCell id="QNlY-ML3Uit1_wFqtahG-125" style="edgeStyle=orthogonalEdgeStyle;rounded=0;orthogonalLoop=1;jettySize=auto;html=1;exitX=1;exitY=0.5;exitDx=0;exitDy=0;entryX=0;entryY=0.5;entryDx=0;entryDy=0;" edge="1" parent="1" source="zQBrx2UrqbEsORAFY46q-161" target="QNlY-ML3Uit1_wFqtahG-124">
          <mxGeometry relative="1" as="geometry" />
        </mxCell>
        <mxCell id="QNlY-ML3Uit1_wFqtahG-162" style="edgeStyle=orthogonalEdgeStyle;rounded=0;orthogonalLoop=1;jettySize=auto;html=1;exitX=0;exitY=0.75;exitDx=0;exitDy=0;entryX=0;entryY=0.5;entryDx=0;entryDy=0;" edge="1" parent="1" source="zQBrx2UrqbEsORAFY46q-161" target="QNlY-ML3Uit1_wFqtahG-161">
          <mxGeometry relative="1" as="geometry">
            <Array as="points">
              <mxPoint x="-990" y="674" />
              <mxPoint x="-990" y="810" />
              <mxPoint x="-160" y="810" />
              <mxPoint x="-160" y="750" />
            </Array>
          </mxGeometry>
        </mxCell>
        <mxCell id="QNlY-ML3Uit1_wFqtahG-180" style="edgeStyle=orthogonalEdgeStyle;rounded=0;orthogonalLoop=1;jettySize=auto;html=1;exitX=0;exitY=0.5;exitDx=0;exitDy=0;entryX=0.5;entryY=0;entryDx=0;entryDy=0;" edge="1" parent="1" source="zQBrx2UrqbEsORAFY46q-161" target="QNlY-ML3Uit1_wFqtahG-179">
          <mxGeometry relative="1" as="geometry">
            <Array as="points">
              <mxPoint x="-970" y="670" />
              <mxPoint x="-1020" y="670" />
              <mxPoint x="-1020" y="740" />
              <mxPoint x="-1047" y="740" />
            </Array>
          </mxGeometry>
        </mxCell>
        <mxCell id="zQBrx2UrqbEsORAFY46q-161" value="classroom" style="rounded=1;whiteSpace=wrap;html=1;fillColor=#dae8fc;strokeColor=#6c8ebf;" vertex="1" parent="1">
          <mxGeometry x="-970" y="629" width="120" height="60" as="geometry" />
        </mxCell>
        <mxCell id="QNlY-ML3Uit1_wFqtahG-129" style="edgeStyle=orthogonalEdgeStyle;rounded=0;orthogonalLoop=1;jettySize=auto;html=1;exitX=0;exitY=0.25;exitDx=0;exitDy=0;entryX=0.5;entryY=1;entryDx=0;entryDy=0;" edge="1" parent="1" source="zQBrx2UrqbEsORAFY46q-162" target="zQBrx2UrqbEsORAFY46q-186">
          <mxGeometry relative="1" as="geometry">
            <Array as="points">
              <mxPoint x="-699.75" y="70" />
              <mxPoint x="-750.75" y="70" />
            </Array>
          </mxGeometry>
        </mxCell>
        <mxCell id="QNlY-ML3Uit1_wFqtahG-138" style="edgeStyle=orthogonalEdgeStyle;rounded=0;orthogonalLoop=1;jettySize=auto;html=1;exitX=0.5;exitY=1;exitDx=0;exitDy=0;entryX=0.5;entryY=0;entryDx=0;entryDy=0;" edge="1" parent="1" source="zQBrx2UrqbEsORAFY46q-162" target="QNlY-ML3Uit1_wFqtahG-136">
          <mxGeometry relative="1" as="geometry" />
        </mxCell>
        <mxCell id="QNlY-ML3Uit1_wFqtahG-142" style="edgeStyle=orthogonalEdgeStyle;rounded=0;orthogonalLoop=1;jettySize=auto;html=1;exitX=0.5;exitY=0;exitDx=0;exitDy=0;entryX=0;entryY=0.5;entryDx=0;entryDy=0;" edge="1" parent="1" source="zQBrx2UrqbEsORAFY46q-162" target="zQBrx2UrqbEsORAFY46q-188">
          <mxGeometry relative="1" as="geometry" />
        </mxCell>
        <mxCell id="QNlY-ML3Uit1_wFqtahG-143" style="edgeStyle=orthogonalEdgeStyle;rounded=0;orthogonalLoop=1;jettySize=auto;html=1;exitX=0.75;exitY=0;exitDx=0;exitDy=0;entryX=0;entryY=0.5;entryDx=0;entryDy=0;" edge="1" parent="1" source="zQBrx2UrqbEsORAFY46q-162" target="zQBrx2UrqbEsORAFY46q-189">
          <mxGeometry relative="1" as="geometry">
            <Array as="points">
              <mxPoint x="-618" y="40" />
              <mxPoint x="-618" y="-42" />
            </Array>
          </mxGeometry>
        </mxCell>
        <mxCell id="QNlY-ML3Uit1_wFqtahG-145" style="edgeStyle=orthogonalEdgeStyle;rounded=0;orthogonalLoop=1;jettySize=auto;html=1;exitX=1;exitY=0.5;exitDx=0;exitDy=0;entryX=0;entryY=0.5;entryDx=0;entryDy=0;" edge="1" parent="1" source="zQBrx2UrqbEsORAFY46q-162" target="QNlY-ML3Uit1_wFqtahG-144">
          <mxGeometry relative="1" as="geometry" />
        </mxCell>
        <mxCell id="zQBrx2UrqbEsORAFY46q-162" value="result" style="rounded=1;whiteSpace=wrap;html=1;fillColor=#dae8fc;strokeColor=#6c8ebf;" vertex="1" parent="1">
          <mxGeometry x="-700" y="40" width="120" height="60" as="geometry" />
        </mxCell>
        <mxCell id="zQBrx2UrqbEsORAFY46q-207" style="edgeStyle=orthogonalEdgeStyle;rounded=0;orthogonalLoop=1;jettySize=auto;html=1;exitX=1;exitY=0.5;exitDx=0;exitDy=0;entryX=0;entryY=0.5;entryDx=0;entryDy=0;" edge="1" parent="1" source="zQBrx2UrqbEsORAFY46q-163" target="zQBrx2UrqbEsORAFY46q-204">
          <mxGeometry relative="1" as="geometry" />
        </mxCell>
        <mxCell id="zQBrx2UrqbEsORAFY46q-163" value="course" style="rounded=1;whiteSpace=wrap;html=1;fillColor=#dae8fc;strokeColor=#6c8ebf;" vertex="1" parent="1">
          <mxGeometry x="-367.5" y="-50" width="120" height="60" as="geometry" />
        </mxCell>
        <mxCell id="QNlY-ML3Uit1_wFqtahG-4" style="edgeStyle=orthogonalEdgeStyle;rounded=0;orthogonalLoop=1;jettySize=auto;html=1;exitX=0.5;exitY=0;exitDx=0;exitDy=0;entryX=1;entryY=0.5;entryDx=0;entryDy=0;" edge="1" parent="1" source="zQBrx2UrqbEsORAFY46q-164" target="QNlY-ML3Uit1_wFqtahG-3">
          <mxGeometry relative="1" as="geometry">
            <Array as="points">
              <mxPoint x="-987" y="-30" />
              <mxPoint x="-987" y="-110" />
            </Array>
          </mxGeometry>
        </mxCell>
        <mxCell id="QNlY-ML3Uit1_wFqtahG-152" value="" style="edgeStyle=orthogonalEdgeStyle;rounded=0;orthogonalLoop=1;jettySize=auto;html=1;" edge="1" parent="1" source="zQBrx2UrqbEsORAFY46q-164" target="QNlY-ML3Uit1_wFqtahG-149">
          <mxGeometry relative="1" as="geometry" />
        </mxCell>
        <mxCell id="zQBrx2UrqbEsORAFY46q-164" value="exam" style="rounded=1;whiteSpace=wrap;html=1;fillColor=#dae8fc;strokeColor=#6c8ebf;" vertex="1" parent="1">
          <mxGeometry x="-1060.75" y="-30" width="120" height="60" as="geometry" />
        </mxCell>
        <mxCell id="QNlY-ML3Uit1_wFqtahG-15" style="edgeStyle=orthogonalEdgeStyle;rounded=0;orthogonalLoop=1;jettySize=auto;html=1;exitX=0.25;exitY=1;exitDx=0;exitDy=0;entryX=0.5;entryY=0;entryDx=0;entryDy=0;" edge="1" parent="1" source="zQBrx2UrqbEsORAFY46q-165" target="QNlY-ML3Uit1_wFqtahG-5">
          <mxGeometry relative="1" as="geometry" />
        </mxCell>
        <mxCell id="QNlY-ML3Uit1_wFqtahG-18" style="edgeStyle=orthogonalEdgeStyle;rounded=0;orthogonalLoop=1;jettySize=auto;html=1;exitX=0.75;exitY=0;exitDx=0;exitDy=0;entryX=0;entryY=0.5;entryDx=0;entryDy=0;" edge="1" parent="1" source="zQBrx2UrqbEsORAFY46q-165" target="QNlY-ML3Uit1_wFqtahG-14">
          <mxGeometry relative="1" as="geometry">
            <Array as="points">
              <mxPoint x="-567" y="616" />
            </Array>
          </mxGeometry>
        </mxCell>
        <mxCell id="QNlY-ML3Uit1_wFqtahG-22" style="edgeStyle=orthogonalEdgeStyle;rounded=0;orthogonalLoop=1;jettySize=auto;html=1;exitX=0.5;exitY=0;exitDx=0;exitDy=0;entryX=0.5;entryY=1;entryDx=0;entryDy=0;" edge="1" parent="1" source="zQBrx2UrqbEsORAFY46q-165" target="QNlY-ML3Uit1_wFqtahG-21">
          <mxGeometry relative="1" as="geometry" />
        </mxCell>
        <mxCell id="QNlY-ML3Uit1_wFqtahG-126" style="edgeStyle=orthogonalEdgeStyle;rounded=0;orthogonalLoop=1;jettySize=auto;html=1;exitX=0;exitY=0.5;exitDx=0;exitDy=0;entryX=1;entryY=0.5;entryDx=0;entryDy=0;" edge="1" parent="1" source="zQBrx2UrqbEsORAFY46q-165" target="QNlY-ML3Uit1_wFqtahG-124">
          <mxGeometry relative="1" as="geometry">
            <Array as="points">
              <mxPoint x="-657.75" y="659" />
            </Array>
          </mxGeometry>
        </mxCell>
        <mxCell id="zQBrx2UrqbEsORAFY46q-165" value="teacher" style="rounded=1;whiteSpace=wrap;html=1;fillColor=#dae8fc;strokeColor=#6c8ebf;" vertex="1" parent="1">
          <mxGeometry x="-657.5" y="626" width="120" height="60" as="geometry" />
        </mxCell>
        <mxCell id="zQBrx2UrqbEsORAFY46q-211" style="edgeStyle=orthogonalEdgeStyle;rounded=0;orthogonalLoop=1;jettySize=auto;html=1;exitX=0.5;exitY=0;exitDx=0;exitDy=0;entryX=0.5;entryY=1;entryDx=0;entryDy=0;" edge="1" parent="1" source="zQBrx2UrqbEsORAFY46q-167" target="zQBrx2UrqbEsORAFY46q-208">
          <mxGeometry relative="1" as="geometry" />
        </mxCell>
        <mxCell id="QNlY-ML3Uit1_wFqtahG-163" style="edgeStyle=orthogonalEdgeStyle;rounded=0;orthogonalLoop=1;jettySize=auto;html=1;exitX=1;exitY=0.75;exitDx=0;exitDy=0;entryX=0.5;entryY=0;entryDx=0;entryDy=0;" edge="1" parent="1" source="zQBrx2UrqbEsORAFY46q-167" target="QNlY-ML3Uit1_wFqtahG-161">
          <mxGeometry relative="1" as="geometry" />
        </mxCell>
        <mxCell id="zQBrx2UrqbEsORAFY46q-167" value="grade" style="rounded=1;whiteSpace=wrap;html=1;fillColor=#dae8fc;strokeColor=#6c8ebf;" vertex="1" parent="1">
          <mxGeometry x="-370" y="-210" width="120" height="60" as="geometry" />
        </mxCell>
        <mxCell id="zQBrx2UrqbEsORAFY46q-168" value="admission_num" style="ellipse;whiteSpace=wrap;html=1;rounded=1;strokeWidth=3;fillColor=#d5e8d4;strokeColor=#82b366;" vertex="1" parent="1">
          <mxGeometry x="-888.75" y="-270" width="110" height="40" as="geometry" />
        </mxCell>
        <mxCell id="zQBrx2UrqbEsORAFY46q-170" value="phone_no" style="ellipse;whiteSpace=wrap;html=1;rounded=1;strokeWidth=3;fillColor=#d5e8d4;strokeColor=#82b366;" vertex="1" parent="1">
          <mxGeometry x="-743.75" y="-270" width="80" height="40" as="geometry" />
        </mxCell>
        <mxCell id="zQBrx2UrqbEsORAFY46q-174" value="date" style="ellipse;whiteSpace=wrap;html=1;rounded=1;strokeWidth=3;fillColor=#d5e8d4;strokeColor=#82b366;" vertex="1" parent="1">
          <mxGeometry x="-428.75" y="50" width="110" height="40" as="geometry" />
        </mxCell>
        <mxCell id="zQBrx2UrqbEsORAFY46q-175" value="admission_num" style="ellipse;whiteSpace=wrap;html=1;rounded=1;strokeWidth=3;fillColor=#d5e8d4;strokeColor=#82b366;" vertex="1" parent="1">
          <mxGeometry x="-312.5" y="50" width="110" height="40" as="geometry" />
        </mxCell>
        <mxCell id="zQBrx2UrqbEsORAFY46q-178" value="status" style="ellipse;whiteSpace=wrap;html=1;rounded=1;" vertex="1" parent="1">
          <mxGeometry x="-168.75" y="150" width="80" height="40" as="geometry" />
        </mxCell>
        <mxCell id="zQBrx2UrqbEsORAFY46q-186" value="exam_name" style="ellipse;whiteSpace=wrap;html=1;rounded=1;strokeWidth=3;fillColor=#d5e8d4;strokeColor=#82b366;" vertex="1" parent="1">
          <mxGeometry x="-806" y="-10" width="110" height="40" as="geometry" />
        </mxCell>
        <mxCell id="zQBrx2UrqbEsORAFY46q-187" value="course_id" style="ellipse;whiteSpace=wrap;html=1;rounded=1;strokeWidth=3;fillColor=#d5e8d4;strokeColor=#82b366;" vertex="1" parent="1">
          <mxGeometry x="-806" y="-60" width="110" height="40" as="geometry" />
        </mxCell>
        <mxCell id="zQBrx2UrqbEsORAFY46q-188" value="admission_num" style="ellipse;whiteSpace=wrap;html=1;rounded=1;strokeWidth=3;fillColor=#d5e8d4;strokeColor=#82b366;" vertex="1" parent="1">
          <mxGeometry x="-597.5" y="-112" width="110" height="40" as="geometry" />
        </mxCell>
        <mxCell id="zQBrx2UrqbEsORAFY46q-189" value="marks" style="ellipse;whiteSpace=wrap;html=1;rounded=1;strokeWidth=1;" vertex="1" parent="1">
          <mxGeometry x="-597.5" y="-62" width="110" height="40" as="geometry" />
        </mxCell>
        <mxCell id="zQBrx2UrqbEsORAFY46q-191" style="edgeStyle=orthogonalEdgeStyle;rounded=0;orthogonalLoop=1;jettySize=auto;html=1;entryX=1;entryY=0.5;entryDx=0;entryDy=0;" edge="1" parent="1" target="zQBrx2UrqbEsORAFY46q-187">
          <mxGeometry relative="1" as="geometry">
            <mxPoint x="-668.75" y="40" as="sourcePoint" />
            <Array as="points">
              <mxPoint x="-668.75" y="-40" />
            </Array>
          </mxGeometry>
        </mxCell>
        <mxCell id="zQBrx2UrqbEsORAFY46q-194" value="classroom_id" style="ellipse;whiteSpace=wrap;html=1;rounded=1;strokeWidth=3;fillColor=#d5e8d4;strokeColor=#82b366;" vertex="1" parent="1">
          <mxGeometry x="-965" y="722" width="110" height="40" as="geometry" />
        </mxCell>
        <mxCell id="zQBrx2UrqbEsORAFY46q-195" value="grade_id" style="ellipse;whiteSpace=wrap;html=1;rounded=1;strokeWidth=1;" vertex="1" parent="1">
          <mxGeometry x="-1130" y="639" width="110" height="40" as="geometry" />
        </mxCell>
        <mxCell id="zQBrx2UrqbEsORAFY46q-196" value="teacher_id" style="ellipse;whiteSpace=wrap;html=1;rounded=1;strokeWidth=1;" vertex="1" parent="1">
          <mxGeometry x="-998.75" y="535" width="110" height="40" as="geometry" />
        </mxCell>
        <mxCell id="zQBrx2UrqbEsORAFY46q-197" value="section" style="ellipse;whiteSpace=wrap;html=1;rounded=1;strokeWidth=1;" vertex="1" parent="1">
          <mxGeometry x="-897.5" y="560" width="110" height="40" as="geometry" />
        </mxCell>
        <mxCell id="zQBrx2UrqbEsORAFY46q-198" style="edgeStyle=orthogonalEdgeStyle;rounded=0;orthogonalLoop=1;jettySize=auto;html=1;exitX=0;exitY=0.5;exitDx=0;exitDy=0;entryX=1;entryY=0.5;entryDx=0;entryDy=0;" edge="1" parent="1" source="zQBrx2UrqbEsORAFY46q-161" target="zQBrx2UrqbEsORAFY46q-195">
          <mxGeometry relative="1" as="geometry" />
        </mxCell>
        <mxCell id="zQBrx2UrqbEsORAFY46q-201" style="edgeStyle=orthogonalEdgeStyle;rounded=0;orthogonalLoop=1;jettySize=auto;html=1;exitX=0.5;exitY=1;exitDx=0;exitDy=0;entryX=0.5;entryY=0;entryDx=0;entryDy=0;" edge="1" parent="1" source="zQBrx2UrqbEsORAFY46q-161" target="zQBrx2UrqbEsORAFY46q-194">
          <mxGeometry relative="1" as="geometry" />
        </mxCell>
        <mxCell id="zQBrx2UrqbEsORAFY46q-202" value="course_id" style="ellipse;whiteSpace=wrap;html=1;rounded=1;strokeWidth=3;fillColor=#d5e8d4;strokeColor=#82b366;" vertex="1" parent="1">
          <mxGeometry x="-185" y="10" width="110" height="40" as="geometry" />
        </mxCell>
        <mxCell id="zQBrx2UrqbEsORAFY46q-203" value="course_name" style="ellipse;whiteSpace=wrap;html=1;rounded=1;strokeWidth=1;" vertex="1" parent="1">
          <mxGeometry x="-187.5" y="-90" width="110" height="40" as="geometry" />
        </mxCell>
        <mxCell id="zQBrx2UrqbEsORAFY46q-204" value="grade_id" style="ellipse;whiteSpace=wrap;html=1;rounded=1;strokeWidth=1;" vertex="1" parent="1">
          <mxGeometry x="-185" y="-40" width="110" height="40" as="geometry" />
        </mxCell>
        <mxCell id="zQBrx2UrqbEsORAFY46q-205" style="edgeStyle=orthogonalEdgeStyle;rounded=0;orthogonalLoop=1;jettySize=auto;html=1;exitX=0.674;exitY=1.012;exitDx=0;exitDy=0;entryX=0;entryY=0.5;entryDx=0;entryDy=0;exitPerimeter=0;" edge="1" parent="1" source="zQBrx2UrqbEsORAFY46q-163" target="zQBrx2UrqbEsORAFY46q-202">
          <mxGeometry relative="1" as="geometry" />
        </mxCell>
        <mxCell id="zQBrx2UrqbEsORAFY46q-206" style="edgeStyle=orthogonalEdgeStyle;rounded=0;orthogonalLoop=1;jettySize=auto;html=1;exitX=0.75;exitY=0;exitDx=0;exitDy=0;entryX=0;entryY=0.5;entryDx=0;entryDy=0;" edge="1" parent="1" source="zQBrx2UrqbEsORAFY46q-163" target="zQBrx2UrqbEsORAFY46q-203">
          <mxGeometry relative="1" as="geometry" />
        </mxCell>
        <mxCell id="zQBrx2UrqbEsORAFY46q-208" value="grade_id" style="ellipse;whiteSpace=wrap;html=1;rounded=1;strokeWidth=3;fillColor=#d5e8d4;strokeColor=#82b366;" vertex="1" parent="1">
          <mxGeometry x="-365" y="-280" width="110" height="40" as="geometry" />
        </mxCell>
        <mxCell id="zQBrx2UrqbEsORAFY46q-209" value="name" style="ellipse;whiteSpace=wrap;html=1;rounded=1;strokeWidth=1;" vertex="1" parent="1">
          <mxGeometry x="-268.75" y="-250" width="110" height="40" as="geometry" />
        </mxCell>
        <mxCell id="zQBrx2UrqbEsORAFY46q-210" style="edgeStyle=orthogonalEdgeStyle;rounded=0;orthogonalLoop=1;jettySize=auto;html=1;exitX=1;exitY=0.5;exitDx=0;exitDy=0;entryX=0.5;entryY=1;entryDx=0;entryDy=0;" edge="1" parent="1" source="zQBrx2UrqbEsORAFY46q-167" target="zQBrx2UrqbEsORAFY46q-209">
          <mxGeometry relative="1" as="geometry" />
        </mxCell>
        <mxCell id="QNlY-ML3Uit1_wFqtahG-1" value="exam_name" style="ellipse;whiteSpace=wrap;html=1;rounded=1;strokeWidth=3;fillColor=#d5e8d4;strokeColor=#82b366;" vertex="1" parent="1">
          <mxGeometry x="-1118.75" y="-80" width="110" height="40" as="geometry" />
        </mxCell>
        <mxCell id="QNlY-ML3Uit1_wFqtahG-2" style="edgeStyle=orthogonalEdgeStyle;rounded=0;orthogonalLoop=1;jettySize=auto;html=1;exitX=0;exitY=0.5;exitDx=0;exitDy=0;entryX=0.289;entryY=0.989;entryDx=0;entryDy=0;entryPerimeter=0;" edge="1" parent="1" source="zQBrx2UrqbEsORAFY46q-164" target="QNlY-ML3Uit1_wFqtahG-1">
          <mxGeometry relative="1" as="geometry" />
        </mxCell>
        <mxCell id="QNlY-ML3Uit1_wFqtahG-3" value="total_marks" style="ellipse;whiteSpace=wrap;html=1;rounded=1;strokeWidth=1;" vertex="1" parent="1">
          <mxGeometry x="-1118.75" y="-130" width="110" height="40" as="geometry" />
        </mxCell>
        <mxCell id="QNlY-ML3Uit1_wFqtahG-10" style="edgeStyle=orthogonalEdgeStyle;rounded=0;orthogonalLoop=1;jettySize=auto;html=1;exitX=0.5;exitY=1;exitDx=0;exitDy=0;entryX=0.5;entryY=0;entryDx=0;entryDy=0;" edge="1" parent="1" target="QNlY-ML3Uit1_wFqtahG-8">
          <mxGeometry relative="1" as="geometry">
            <mxPoint x="-622.5" y="731.9999999999995" as="sourcePoint" />
            <Array as="points">
              <mxPoint x="-628.75" y="733" />
              <mxPoint x="-628.75" y="750" />
              <mxPoint x="-559.75" y="750" />
            </Array>
          </mxGeometry>
        </mxCell>
        <mxCell id="QNlY-ML3Uit1_wFqtahG-20" style="edgeStyle=orthogonalEdgeStyle;rounded=0;orthogonalLoop=1;jettySize=auto;html=1;exitX=0.5;exitY=1;exitDx=0;exitDy=0;entryX=0.5;entryY=0;entryDx=0;entryDy=0;" edge="1" parent="1" source="QNlY-ML3Uit1_wFqtahG-5" target="QNlY-ML3Uit1_wFqtahG-7">
          <mxGeometry relative="1" as="geometry">
            <mxPoint x="-622.5" y="731.9999999999995" as="sourcePoint" />
            <Array as="points">
              <mxPoint x="-628.75" y="750" />
              <mxPoint x="-684.75" y="750" />
            </Array>
          </mxGeometry>
        </mxCell>
        <mxCell id="QNlY-ML3Uit1_wFqtahG-7" value="first_name" style="ellipse;whiteSpace=wrap;html=1;rounded=1;strokeWidth=1;" vertex="1" parent="1">
          <mxGeometry x="-738.75" y="760" width="110" height="40" as="geometry" />
        </mxCell>
        <mxCell id="QNlY-ML3Uit1_wFqtahG-8" value="last_name" style="ellipse;whiteSpace=wrap;html=1;rounded=1;strokeWidth=1;" vertex="1" parent="1">
          <mxGeometry x="-615" y="760" width="110" height="40" as="geometry" />
        </mxCell>
        <mxCell id="QNlY-ML3Uit1_wFqtahG-12" value="gender" style="ellipse;whiteSpace=wrap;html=1;rounded=1;strokeWidth=1;" vertex="1" parent="1">
          <mxGeometry x="-496.25" y="692" width="110" height="40" as="geometry" />
        </mxCell>
        <mxCell id="QNlY-ML3Uit1_wFqtahG-13" value="mobile_no" style="ellipse;whiteSpace=wrap;html=1;rounded=1;strokeWidth=1;" vertex="1" parent="1">
          <mxGeometry x="-496.25" y="644" width="110" height="40" as="geometry" />
        </mxCell>
        <mxCell id="QNlY-ML3Uit1_wFqtahG-14" value="email" style="ellipse;whiteSpace=wrap;html=1;rounded=1;strokeWidth=1;" vertex="1" parent="1">
          <mxGeometry x="-496.25" y="596" width="110" height="40" as="geometry" />
        </mxCell>
        <mxCell id="QNlY-ML3Uit1_wFqtahG-16" style="edgeStyle=orthogonalEdgeStyle;rounded=0;orthogonalLoop=1;jettySize=auto;html=1;exitX=0.75;exitY=1;exitDx=0;exitDy=0;entryX=0;entryY=0.5;entryDx=0;entryDy=0;" edge="1" parent="1" source="zQBrx2UrqbEsORAFY46q-165" target="QNlY-ML3Uit1_wFqtahG-12">
          <mxGeometry relative="1" as="geometry" />
        </mxCell>
        <mxCell id="QNlY-ML3Uit1_wFqtahG-17" style="edgeStyle=orthogonalEdgeStyle;rounded=0;orthogonalLoop=1;jettySize=auto;html=1;exitX=1;exitY=0.5;exitDx=0;exitDy=0;entryX=-0.003;entryY=0.3;entryDx=0;entryDy=0;entryPerimeter=0;" edge="1" parent="1" source="zQBrx2UrqbEsORAFY46q-165" target="QNlY-ML3Uit1_wFqtahG-13">
          <mxGeometry relative="1" as="geometry" />
        </mxCell>
        <mxCell id="QNlY-ML3Uit1_wFqtahG-21" value="teacher_id" style="ellipse;whiteSpace=wrap;html=1;rounded=1;strokeWidth=3;fillColor=#d5e8d4;strokeColor=#82b366;" vertex="1" parent="1">
          <mxGeometry x="-652.5" y="556" width="110" height="40" as="geometry" />
        </mxCell>
        <mxCell id="QNlY-ML3Uit1_wFqtahG-23" value="admission_num" style="ellipse;whiteSpace=wrap;html=1;rounded=1;strokeWidth=3;fillColor=#d5e8d4;strokeColor=#82b366;" vertex="1" parent="1">
          <mxGeometry x="-598.75" y="280" width="110" height="40" as="geometry" />
        </mxCell>
        <mxCell id="QNlY-ML3Uit1_wFqtahG-25" style="edgeStyle=orthogonalEdgeStyle;rounded=0;orthogonalLoop=1;jettySize=auto;html=1;exitX=0.5;exitY=1;exitDx=0;exitDy=0;entryX=0.5;entryY=0;entryDx=0;entryDy=0;" edge="1" parent="1" source="QNlY-ML3Uit1_wFqtahG-27" target="QNlY-ML3Uit1_wFqtahG-29">
          <mxGeometry relative="1" as="geometry" />
        </mxCell>
        <mxCell id="QNlY-ML3Uit1_wFqtahG-26" style="edgeStyle=orthogonalEdgeStyle;rounded=0;orthogonalLoop=1;jettySize=auto;html=1;exitX=0.5;exitY=1;exitDx=0;exitDy=0;entryX=0.5;entryY=0;entryDx=0;entryDy=0;" edge="1" parent="1" source="QNlY-ML3Uit1_wFqtahG-27" target="QNlY-ML3Uit1_wFqtahG-28">
          <mxGeometry relative="1" as="geometry" />
        </mxCell>
        <mxCell id="QNlY-ML3Uit1_wFqtahG-27" value="name" style="ellipse;whiteSpace=wrap;html=1;rounded=1;strokeWidth=1;" vertex="1" parent="1">
          <mxGeometry x="-751.25" y="430" width="110" height="40" as="geometry" />
        </mxCell>
        <mxCell id="QNlY-ML3Uit1_wFqtahG-28" value="first_name" style="ellipse;whiteSpace=wrap;html=1;rounded=1;strokeWidth=1;" vertex="1" parent="1">
          <mxGeometry x="-828.75" y="510" width="110" height="40" as="geometry" />
        </mxCell>
        <mxCell id="QNlY-ML3Uit1_wFqtahG-29" value="last_name" style="ellipse;whiteSpace=wrap;html=1;rounded=1;strokeWidth=1;" vertex="1" parent="1">
          <mxGeometry x="-688.75" y="510" width="110" height="40" as="geometry" />
        </mxCell>
        <mxCell id="QNlY-ML3Uit1_wFqtahG-30" value="date_of_birth" style="ellipse;whiteSpace=wrap;html=1;rounded=1;strokeWidth=1;" vertex="1" parent="1">
          <mxGeometry x="-1033.75" y="420" width="110" height="40" as="geometry" />
        </mxCell>
        <mxCell id="QNlY-ML3Uit1_wFqtahG-31" value="date_of_join" style="ellipse;whiteSpace=wrap;html=1;rounded=1;strokeWidth=1;" vertex="1" parent="1">
          <mxGeometry x="-971.25" y="470" width="110" height="40" as="geometry" />
        </mxCell>
        <mxCell id="QNlY-ML3Uit1_wFqtahG-32" value="fee_status" style="ellipse;whiteSpace=wrap;html=1;rounded=1;strokeWidth=1;" vertex="1" parent="1">
          <mxGeometry x="-608.75" y="440" width="110" height="40" as="geometry" />
        </mxCell>
        <mxCell id="QNlY-ML3Uit1_wFqtahG-33" value="email" style="ellipse;whiteSpace=wrap;html=1;rounded=1;strokeWidth=1;" vertex="1" parent="1">
          <mxGeometry x="-988.75" y="247" width="110" height="40" as="geometry" />
        </mxCell>
        <mxCell id="QNlY-ML3Uit1_wFqtahG-77" style="edgeStyle=orthogonalEdgeStyle;rounded=0;orthogonalLoop=1;jettySize=auto;html=1;entryX=1;entryY=0.5;entryDx=0;entryDy=0;" edge="1" parent="1" target="QNlY-ML3Uit1_wFqtahG-35">
          <mxGeometry relative="1" as="geometry">
            <mxPoint x="-760.75" y="390" as="sourcePoint" />
            <Array as="points">
              <mxPoint x="-760.75" y="390" />
            </Array>
          </mxGeometry>
        </mxCell>
        <mxCell id="QNlY-ML3Uit1_wFqtahG-35" value="gender" style="ellipse;whiteSpace=wrap;html=1;rounded=1;strokeWidth=1;" vertex="1" parent="1">
          <mxGeometry x="-1033.75" y="370" width="110" height="40" as="geometry" />
        </mxCell>
        <mxCell id="QNlY-ML3Uit1_wFqtahG-57" style="edgeStyle=orthogonalEdgeStyle;rounded=0;orthogonalLoop=1;jettySize=auto;html=1;exitX=0;exitY=0.5;exitDx=0;exitDy=0;entryX=0.5;entryY=1;entryDx=0;entryDy=0;" edge="1" parent="1" source="QNlY-ML3Uit1_wFqtahG-36" target="QNlY-ML3Uit1_wFqtahG-46">
          <mxGeometry relative="1" as="geometry" />
        </mxCell>
        <mxCell id="QNlY-ML3Uit1_wFqtahG-133" style="edgeStyle=orthogonalEdgeStyle;rounded=0;orthogonalLoop=1;jettySize=auto;html=1;exitX=0.605;exitY=-0.007;exitDx=0;exitDy=0;exitPerimeter=0;" edge="1" parent="1" source="QNlY-ML3Uit1_wFqtahG-36" target="QNlY-ML3Uit1_wFqtahG-49">
          <mxGeometry relative="1" as="geometry">
            <Array as="points">
              <mxPoint x="-794.75" y="180" />
              <mxPoint x="-750.75" y="180" />
            </Array>
          </mxGeometry>
        </mxCell>
        <mxCell id="QNlY-ML3Uit1_wFqtahG-36" value="address" style="ellipse;whiteSpace=wrap;html=1;rounded=1;strokeWidth=1;" vertex="1" parent="1">
          <mxGeometry x="-861.25" y="200" width="110" height="40" as="geometry" />
        </mxCell>
        <mxCell id="QNlY-ML3Uit1_wFqtahG-44" style="edgeStyle=orthogonalEdgeStyle;rounded=0;orthogonalLoop=1;jettySize=auto;html=1;exitX=1;exitY=1;exitDx=0;exitDy=0;entryX=0.5;entryY=0;entryDx=0;entryDy=0;" edge="1" parent="1" source="zQBrx2UrqbEsORAFY46q-156" target="QNlY-ML3Uit1_wFqtahG-32">
          <mxGeometry relative="1" as="geometry" />
        </mxCell>
        <mxCell id="QNlY-ML3Uit1_wFqtahG-46" value="house_no" style="ellipse;whiteSpace=wrap;html=1;rounded=1;strokeWidth=1;" vertex="1" parent="1">
          <mxGeometry x="-1007.5" y="160" width="110" height="40" as="geometry" />
        </mxCell>
        <mxCell id="QNlY-ML3Uit1_wFqtahG-47" value="city" style="ellipse;whiteSpace=wrap;html=1;rounded=1;strokeWidth=1;" vertex="1" parent="1">
          <mxGeometry x="-1007.5" y="110" width="110" height="40" as="geometry" />
        </mxCell>
        <mxCell id="QNlY-ML3Uit1_wFqtahG-48" value="state" style="ellipse;whiteSpace=wrap;html=1;rounded=1;strokeWidth=1;" vertex="1" parent="1">
          <mxGeometry x="-878.75" y="80" width="110" height="40" as="geometry" />
        </mxCell>
        <mxCell id="QNlY-ML3Uit1_wFqtahG-49" value="pincode" style="ellipse;whiteSpace=wrap;html=1;rounded=1;strokeWidth=1;" vertex="1" parent="1">
          <mxGeometry x="-806" y="120" width="110" height="40" as="geometry" />
        </mxCell>
        <mxCell id="QNlY-ML3Uit1_wFqtahG-54" style="edgeStyle=orthogonalEdgeStyle;rounded=0;orthogonalLoop=1;jettySize=auto;html=1;exitX=0;exitY=0;exitDx=0;exitDy=0;entryX=1;entryY=0.5;entryDx=0;entryDy=0;" edge="1" parent="1" source="QNlY-ML3Uit1_wFqtahG-36" target="QNlY-ML3Uit1_wFqtahG-47">
          <mxGeometry relative="1" as="geometry">
            <Array as="points">
              <mxPoint x="-844.75" y="130" />
            </Array>
          </mxGeometry>
        </mxCell>
        <mxCell id="QNlY-ML3Uit1_wFqtahG-62" style="edgeStyle=orthogonalEdgeStyle;rounded=0;orthogonalLoop=1;jettySize=auto;html=1;exitX=0.5;exitY=1;exitDx=0;exitDy=0;entryX=0.5;entryY=0;entryDx=0;entryDy=0;" edge="1" parent="1" source="QNlY-ML3Uit1_wFqtahG-59" target="QNlY-ML3Uit1_wFqtahG-60">
          <mxGeometry relative="1" as="geometry" />
        </mxCell>
        <mxCell id="QNlY-ML3Uit1_wFqtahG-63" style="edgeStyle=orthogonalEdgeStyle;rounded=0;orthogonalLoop=1;jettySize=auto;html=1;exitX=0.5;exitY=1;exitDx=0;exitDy=0;entryX=0.5;entryY=0;entryDx=0;entryDy=0;" edge="1" parent="1" source="QNlY-ML3Uit1_wFqtahG-59" target="QNlY-ML3Uit1_wFqtahG-61">
          <mxGeometry relative="1" as="geometry" />
        </mxCell>
        <mxCell id="QNlY-ML3Uit1_wFqtahG-59" value="name" style="ellipse;whiteSpace=wrap;html=1;rounded=1;strokeWidth=1;" vertex="1" parent="1">
          <mxGeometry x="-365" y="420" width="110" height="40" as="geometry" />
        </mxCell>
        <mxCell id="QNlY-ML3Uit1_wFqtahG-60" value="first_name" style="ellipse;whiteSpace=wrap;html=1;rounded=1;strokeWidth=1;" vertex="1" parent="1">
          <mxGeometry x="-435" y="500" width="110" height="40" as="geometry" />
        </mxCell>
        <mxCell id="QNlY-ML3Uit1_wFqtahG-61" value="last_name" style="ellipse;whiteSpace=wrap;html=1;rounded=1;strokeWidth=1;" vertex="1" parent="1">
          <mxGeometry x="-295" y="500" width="110" height="40" as="geometry" />
        </mxCell>
        <mxCell id="QNlY-ML3Uit1_wFqtahG-65" value="admission_num" style="ellipse;whiteSpace=wrap;html=1;rounded=1;strokeWidth=3;fillColor=#d5e8d4;strokeColor=#82b366;" vertex="1" parent="1">
          <mxGeometry x="-175" y="370" width="110" height="40" as="geometry" />
        </mxCell>
        <mxCell id="QNlY-ML3Uit1_wFqtahG-66" value="parent_id" style="ellipse;whiteSpace=wrap;html=1;rounded=1;strokeWidth=1;" vertex="1" parent="1">
          <mxGeometry x="-225" y="220" width="110" height="40" as="geometry" />
        </mxCell>
        <mxCell id="QNlY-ML3Uit1_wFqtahG-67" value="occupation" style="ellipse;whiteSpace=wrap;html=1;rounded=1;strokeWidth=1;" vertex="1" parent="1">
          <mxGeometry x="-358.75" y="220" width="110" height="40" as="geometry" />
        </mxCell>
        <mxCell id="QNlY-ML3Uit1_wFqtahG-68" value="mobile_no" style="ellipse;whiteSpace=wrap;html=1;rounded=1;strokeWidth=1;" vertex="1" parent="1">
          <mxGeometry x="-475" y="250" width="110" height="40" as="geometry" />
        </mxCell>
        <mxCell id="QNlY-ML3Uit1_wFqtahG-70" value="email" style="ellipse;whiteSpace=wrap;html=1;rounded=1;strokeWidth=1;" vertex="1" parent="1">
          <mxGeometry x="-185" y="300" width="110" height="40" as="geometry" />
        </mxCell>
        <mxCell id="QNlY-ML3Uit1_wFqtahG-82" style="edgeStyle=orthogonalEdgeStyle;rounded=0;orthogonalLoop=1;jettySize=auto;html=1;exitX=0;exitY=0.5;exitDx=0;exitDy=0;entryX=1;entryY=0.5;entryDx=0;entryDy=0;" edge="1" parent="1" source="zQBrx2UrqbEsORAFY46q-159" target="QNlY-ML3Uit1_wFqtahG-79">
          <mxGeometry relative="1" as="geometry" />
        </mxCell>
        <mxCell id="QNlY-ML3Uit1_wFqtahG-79" value="has" style="rhombus;whiteSpace=wrap;html=1;fillColor=#f8cecc;strokeColor=#b85450;" vertex="1" parent="1">
          <mxGeometry x="-510" y="330" width="80" height="80" as="geometry" />
        </mxCell>
        <mxCell id="QNlY-ML3Uit1_wFqtahG-83" value="Many" style="text;html=1;align=center;verticalAlign=middle;resizable=0;points=[];autosize=1;strokeColor=none;fillColor=none;" vertex="1" parent="1">
          <mxGeometry x="-555" y="340" width="50" height="30" as="geometry" />
        </mxCell>
        <mxCell id="QNlY-ML3Uit1_wFqtahG-84" value="N" style="text;html=1;align=center;verticalAlign=middle;resizable=0;points=[];autosize=1;strokeColor=none;fillColor=none;" vertex="1" parent="1">
          <mxGeometry x="-435" y="340" width="30" height="30" as="geometry" />
        </mxCell>
        <mxCell id="QNlY-ML3Uit1_wFqtahG-95" style="edgeStyle=orthogonalEdgeStyle;rounded=0;orthogonalLoop=1;jettySize=auto;html=1;exitX=0.75;exitY=0;exitDx=0;exitDy=0;entryX=0.5;entryY=1;entryDx=0;entryDy=0;" edge="1" parent="1" source="zQBrx2UrqbEsORAFY46q-159" target="QNlY-ML3Uit1_wFqtahG-66">
          <mxGeometry relative="1" as="geometry">
            <Array as="points">
              <mxPoint x="-279.75" y="280" />
            </Array>
          </mxGeometry>
        </mxCell>
        <mxCell id="QNlY-ML3Uit1_wFqtahG-97" value="has" style="rhombus;whiteSpace=wrap;html=1;fillColor=#f8cecc;strokeColor=#b85450;" vertex="1" parent="1">
          <mxGeometry x="-545" y="140" width="80" height="80" as="geometry" />
        </mxCell>
        <mxCell id="QNlY-ML3Uit1_wFqtahG-100" value="One" style="text;html=1;align=center;verticalAlign=middle;resizable=0;points=[];autosize=1;strokeColor=none;fillColor=none;" vertex="1" parent="1">
          <mxGeometry x="-586" y="150" width="50" height="30" as="geometry" />
        </mxCell>
        <mxCell id="QNlY-ML3Uit1_wFqtahG-101" value="Many" style="text;html=1;align=center;verticalAlign=middle;resizable=0;points=[];autosize=1;strokeColor=none;fillColor=none;" vertex="1" parent="1">
          <mxGeometry x="-475" y="150" width="50" height="30" as="geometry" />
        </mxCell>
        <mxCell id="QNlY-ML3Uit1_wFqtahG-118" style="edgeStyle=orthogonalEdgeStyle;rounded=0;orthogonalLoop=1;jettySize=auto;html=1;exitX=0.5;exitY=1;exitDx=0;exitDy=0;entryX=0;entryY=0.25;entryDx=0;entryDy=0;" edge="1" parent="1" source="QNlY-ML3Uit1_wFqtahG-108" target="zQBrx2UrqbEsORAFY46q-161">
          <mxGeometry relative="1" as="geometry">
            <Array as="points">
              <mxPoint x="-1018.75" y="600" />
              <mxPoint x="-1018.75" y="644" />
            </Array>
          </mxGeometry>
        </mxCell>
        <mxCell id="QNlY-ML3Uit1_wFqtahG-108" value="has" style="rhombus;whiteSpace=wrap;html=1;fillColor=#f8cecc;strokeColor=#b85450;" vertex="1" parent="1">
          <mxGeometry x="-1086.75" y="520" width="80" height="80" as="geometry" />
        </mxCell>
        <mxCell id="QNlY-ML3Uit1_wFqtahG-112" value="Many" style="text;html=1;align=center;verticalAlign=middle;resizable=0;points=[];autosize=1;strokeColor=none;fillColor=none;" vertex="1" parent="1">
          <mxGeometry x="-1118.75" y="515" width="50" height="30" as="geometry" />
        </mxCell>
        <mxCell id="QNlY-ML3Uit1_wFqtahG-116" value="Many" style="text;html=1;align=center;verticalAlign=middle;resizable=0;points=[];autosize=1;strokeColor=none;fillColor=none;" vertex="1" parent="1">
          <mxGeometry x="-1118.75" y="575" width="50" height="30" as="geometry" />
        </mxCell>
        <mxCell id="QNlY-ML3Uit1_wFqtahG-122" value="" style="edgeStyle=orthogonalEdgeStyle;rounded=0;orthogonalLoop=1;jettySize=auto;html=1;exitX=0.5;exitY=1;exitDx=0;exitDy=0;entryX=0.5;entryY=0;entryDx=0;entryDy=0;" edge="1" parent="1" target="QNlY-ML3Uit1_wFqtahG-5">
          <mxGeometry relative="1" as="geometry">
            <mxPoint x="-622.5" y="731.9999999999995" as="sourcePoint" />
            <mxPoint x="-684.75" y="772" as="targetPoint" />
          </mxGeometry>
        </mxCell>
        <mxCell id="QNlY-ML3Uit1_wFqtahG-5" value="name" style="ellipse;whiteSpace=wrap;html=1;rounded=1;strokeWidth=1;" vertex="1" parent="1">
          <mxGeometry x="-683.75" y="700" width="110" height="40" as="geometry" />
        </mxCell>
        <mxCell id="QNlY-ML3Uit1_wFqtahG-124" value="has" style="rhombus;whiteSpace=wrap;html=1;fillColor=#f8cecc;strokeColor=#b85450;" vertex="1" parent="1">
          <mxGeometry x="-787.5" y="619" width="80" height="80" as="geometry" />
        </mxCell>
        <mxCell id="QNlY-ML3Uit1_wFqtahG-127" value="Many" style="text;html=1;align=center;verticalAlign=middle;resizable=0;points=[];autosize=1;strokeColor=none;fillColor=none;" vertex="1" parent="1">
          <mxGeometry x="-837.5" y="629" width="50" height="30" as="geometry" />
        </mxCell>
        <mxCell id="QNlY-ML3Uit1_wFqtahG-128" value="One" style="text;html=1;align=center;verticalAlign=middle;resizable=0;points=[];autosize=1;strokeColor=none;fillColor=none;" vertex="1" parent="1">
          <mxGeometry x="-711" y="631" width="50" height="30" as="geometry" />
        </mxCell>
        <mxCell id="QNlY-ML3Uit1_wFqtahG-132" style="edgeStyle=orthogonalEdgeStyle;rounded=0;orthogonalLoop=1;jettySize=auto;html=1;exitX=0.5;exitY=0;exitDx=0;exitDy=0;entryX=0.447;entryY=1.061;entryDx=0;entryDy=0;entryPerimeter=0;" edge="1" parent="1" source="QNlY-ML3Uit1_wFqtahG-36" target="QNlY-ML3Uit1_wFqtahG-48">
          <mxGeometry relative="1" as="geometry" />
        </mxCell>
        <mxCell id="QNlY-ML3Uit1_wFqtahG-136" value="has" style="rhombus;whiteSpace=wrap;html=1;fillColor=#f8cecc;strokeColor=#b85450;" vertex="1" parent="1">
          <mxGeometry x="-680" y="140" width="80" height="80" as="geometry" />
        </mxCell>
        <mxCell id="QNlY-ML3Uit1_wFqtahG-139" value="One" style="text;html=1;align=center;verticalAlign=middle;resizable=0;points=[];autosize=1;strokeColor=none;fillColor=none;" vertex="1" parent="1">
          <mxGeometry x="-696" y="210" width="50" height="30" as="geometry" />
        </mxCell>
        <mxCell id="QNlY-ML3Uit1_wFqtahG-141" value="Many" style="text;html=1;align=center;verticalAlign=middle;resizable=0;points=[];autosize=1;strokeColor=none;fillColor=none;" vertex="1" parent="1">
          <mxGeometry x="-691.25" y="115" width="50" height="30" as="geometry" />
        </mxCell>
        <mxCell id="QNlY-ML3Uit1_wFqtahG-146" style="edgeStyle=orthogonalEdgeStyle;rounded=0;orthogonalLoop=1;jettySize=auto;html=1;entryX=1;entryY=0.5;entryDx=0;entryDy=0;" edge="1" parent="1" source="zQBrx2UrqbEsORAFY46q-163" target="QNlY-ML3Uit1_wFqtahG-144">
          <mxGeometry relative="1" as="geometry" />
        </mxCell>
        <mxCell id="QNlY-ML3Uit1_wFqtahG-144" value="has" style="rhombus;whiteSpace=wrap;html=1;fillColor=#f8cecc;strokeColor=#b85450;" vertex="1" parent="1">
          <mxGeometry x="-515" width="80" height="80" as="geometry" />
        </mxCell>
        <mxCell id="QNlY-ML3Uit1_wFqtahG-147" value="Many" style="text;html=1;align=center;verticalAlign=middle;resizable=0;points=[];autosize=1;strokeColor=none;fillColor=none;" vertex="1" parent="1">
          <mxGeometry x="-560" y="10" width="50" height="30" as="geometry" />
        </mxCell>
        <mxCell id="QNlY-ML3Uit1_wFqtahG-148" value="One" style="text;html=1;align=center;verticalAlign=middle;resizable=0;points=[];autosize=1;strokeColor=none;fillColor=none;" vertex="1" parent="1">
          <mxGeometry x="-445" y="10" width="50" height="30" as="geometry" />
        </mxCell>
        <mxCell id="QNlY-ML3Uit1_wFqtahG-151" style="edgeStyle=orthogonalEdgeStyle;rounded=0;orthogonalLoop=1;jettySize=auto;html=1;exitX=0;exitY=0.75;exitDx=0;exitDy=0;entryX=0.5;entryY=1;entryDx=0;entryDy=0;" edge="1" parent="1" source="zQBrx2UrqbEsORAFY46q-162" target="QNlY-ML3Uit1_wFqtahG-149">
          <mxGeometry relative="1" as="geometry">
            <Array as="points">
              <mxPoint x="-759" y="85" />
              <mxPoint x="-759" y="65" />
              <mxPoint x="-857" y="65" />
              <mxPoint x="-857" y="40" />
            </Array>
          </mxGeometry>
        </mxCell>
        <mxCell id="QNlY-ML3Uit1_wFqtahG-149" value="has" style="rhombus;whiteSpace=wrap;html=1;fillColor=#f8cecc;strokeColor=#b85450;" vertex="1" parent="1">
          <mxGeometry x="-897.5" y="-40" width="80" height="80" as="geometry" />
        </mxCell>
        <mxCell id="QNlY-ML3Uit1_wFqtahG-153" value="Many" style="text;html=1;align=center;verticalAlign=middle;resizable=0;points=[];autosize=1;strokeColor=none;fillColor=none;" vertex="1" parent="1">
          <mxGeometry x="-855" y="40" width="50" height="30" as="geometry" />
        </mxCell>
        <mxCell id="QNlY-ML3Uit1_wFqtahG-154" value="One" style="text;html=1;align=center;verticalAlign=middle;resizable=0;points=[];autosize=1;strokeColor=none;fillColor=none;" vertex="1" parent="1">
          <mxGeometry x="-947.5" y="-30" width="50" height="30" as="geometry" />
        </mxCell>
        <mxCell id="QNlY-ML3Uit1_wFqtahG-155" value="has" style="rhombus;whiteSpace=wrap;html=1;fillColor=#f8cecc;strokeColor=#b85450;" vertex="1" parent="1">
          <mxGeometry x="-355" y="-142" width="70" height="70" as="geometry" />
        </mxCell>
        <mxCell id="QNlY-ML3Uit1_wFqtahG-156" style="edgeStyle=orthogonalEdgeStyle;rounded=0;orthogonalLoop=1;jettySize=auto;html=1;exitX=0;exitY=0.5;exitDx=0;exitDy=0;entryX=-0.01;entryY=0.532;entryDx=0;entryDy=0;entryPerimeter=0;" edge="1" parent="1" source="zQBrx2UrqbEsORAFY46q-167" target="QNlY-ML3Uit1_wFqtahG-155">
          <mxGeometry relative="1" as="geometry" />
        </mxCell>
        <mxCell id="QNlY-ML3Uit1_wFqtahG-158" style="edgeStyle=orthogonalEdgeStyle;rounded=0;orthogonalLoop=1;jettySize=auto;html=1;exitX=0.396;exitY=-0.01;exitDx=0;exitDy=0;entryX=0.5;entryY=1;entryDx=0;entryDy=0;exitPerimeter=0;" edge="1" parent="1" source="zQBrx2UrqbEsORAFY46q-163" target="QNlY-ML3Uit1_wFqtahG-155">
          <mxGeometry relative="1" as="geometry" />
        </mxCell>
        <mxCell id="QNlY-ML3Uit1_wFqtahG-159" value="One" style="text;html=1;align=center;verticalAlign=middle;resizable=0;points=[];autosize=1;strokeColor=none;fillColor=none;" vertex="1" parent="1">
          <mxGeometry x="-370" y="-80" width="50" height="30" as="geometry" />
        </mxCell>
        <mxCell id="QNlY-ML3Uit1_wFqtahG-160" value="Many" style="text;html=1;align=center;verticalAlign=middle;resizable=0;points=[];autosize=1;strokeColor=none;fillColor=none;" vertex="1" parent="1">
          <mxGeometry x="-395" y="-140" width="50" height="30" as="geometry" />
        </mxCell>
        <mxCell id="QNlY-ML3Uit1_wFqtahG-161" value="has" style="rhombus;whiteSpace=wrap;html=1;fillColor=#f8cecc;strokeColor=#b85450;" vertex="1" parent="1">
          <mxGeometry x="-100" y="710" width="80" height="80" as="geometry" />
        </mxCell>
        <mxCell id="QNlY-ML3Uit1_wFqtahG-164" value="One" style="text;html=1;align=center;verticalAlign=middle;resizable=0;points=[];autosize=1;strokeColor=none;fillColor=none;" vertex="1" parent="1">
          <mxGeometry x="-115" y="686" width="50" height="30" as="geometry" />
        </mxCell>
        <mxCell id="QNlY-ML3Uit1_wFqtahG-166" value="Many" style="text;html=1;align=center;verticalAlign=middle;resizable=0;points=[];autosize=1;strokeColor=none;fillColor=none;" vertex="1" parent="1">
          <mxGeometry x="-150" y="760" width="50" height="30" as="geometry" />
        </mxCell>
        <mxCell id="QNlY-ML3Uit1_wFqtahG-168" value="has" style="rhombus;whiteSpace=wrap;html=1;fillColor=#f8cecc;strokeColor=#b85450;" vertex="1" parent="1">
          <mxGeometry x="-970" y="-190" width="80" height="80" as="geometry" />
        </mxCell>
        <mxCell id="QNlY-ML3Uit1_wFqtahG-172" value="One" style="text;html=1;align=center;verticalAlign=middle;resizable=0;points=[];autosize=1;strokeColor=none;fillColor=none;" vertex="1" parent="1">
          <mxGeometry x="-1021.25" y="-180" width="50" height="30" as="geometry" />
        </mxCell>
        <mxCell id="QNlY-ML3Uit1_wFqtahG-173" value="Many" style="text;html=1;align=center;verticalAlign=middle;resizable=0;points=[];autosize=1;strokeColor=none;fillColor=none;" vertex="1" parent="1">
          <mxGeometry x="-890" y="-180" width="50" height="30" as="geometry" />
        </mxCell>
        <mxCell id="QNlY-ML3Uit1_wFqtahG-181" style="edgeStyle=orthogonalEdgeStyle;rounded=0;orthogonalLoop=1;jettySize=auto;html=1;exitX=1;exitY=0.5;exitDx=0;exitDy=0;entryX=0;entryY=0.5;entryDx=0;entryDy=0;" edge="1" parent="1" source="QNlY-ML3Uit1_wFqtahG-174" target="QNlY-ML3Uit1_wFqtahG-179">
          <mxGeometry relative="1" as="geometry" />
        </mxCell>
        <mxCell id="QNlY-ML3Uit1_wFqtahG-174" value="classroom_st" style="rounded=1;whiteSpace=wrap;html=1;fillColor=#dae8fc;strokeColor=#6c8ebf;" vertex="1" parent="1">
          <mxGeometry x="-1248.75" y="792" width="120" height="60" as="geometry" />
        </mxCell>
        <mxCell id="QNlY-ML3Uit1_wFqtahG-175" value="classroom_id" style="ellipse;whiteSpace=wrap;html=1;rounded=1;strokeWidth=3;fillColor=#d5e8d4;strokeColor=#82b366;" vertex="1" parent="1">
          <mxGeometry x="-1178.75" y="722" width="110" height="40" as="geometry" />
        </mxCell>
        <mxCell id="QNlY-ML3Uit1_wFqtahG-176" value="admission_num" style="ellipse;whiteSpace=wrap;html=1;rounded=1;strokeWidth=3;fillColor=#d5e8d4;strokeColor=#82b366;" vertex="1" parent="1">
          <mxGeometry x="-1303.75" y="722" width="110" height="40" as="geometry" />
        </mxCell>
        <mxCell id="QNlY-ML3Uit1_wFqtahG-177" style="edgeStyle=orthogonalEdgeStyle;rounded=0;orthogonalLoop=1;jettySize=auto;html=1;exitX=0.25;exitY=0;exitDx=0;exitDy=0;entryX=0.777;entryY=1;entryDx=0;entryDy=0;entryPerimeter=0;" edge="1" parent="1" source="QNlY-ML3Uit1_wFqtahG-174" target="QNlY-ML3Uit1_wFqtahG-176">
          <mxGeometry relative="1" as="geometry" />
        </mxCell>
        <mxCell id="QNlY-ML3Uit1_wFqtahG-178" style="edgeStyle=orthogonalEdgeStyle;rounded=0;orthogonalLoop=1;jettySize=auto;html=1;exitX=0.75;exitY=0;exitDx=0;exitDy=0;entryX=0.248;entryY=1.057;entryDx=0;entryDy=0;entryPerimeter=0;" edge="1" parent="1" source="QNlY-ML3Uit1_wFqtahG-174" target="QNlY-ML3Uit1_wFqtahG-175">
          <mxGeometry relative="1" as="geometry" />
        </mxCell>
        <mxCell id="QNlY-ML3Uit1_wFqtahG-179" value="has" style="rhombus;whiteSpace=wrap;html=1;fillColor=#f8cecc;strokeColor=#b85450;" vertex="1" parent="1">
          <mxGeometry x="-1087.5" y="782" width="80" height="80" as="geometry" />
        </mxCell>
        <mxCell id="QNlY-ML3Uit1_wFqtahG-182" value="One" style="text;html=1;align=center;verticalAlign=middle;resizable=0;points=[];autosize=1;strokeColor=none;fillColor=none;" vertex="1" parent="1">
          <mxGeometry x="-1048.75" y="752" width="50" height="30" as="geometry" />
        </mxCell>
        <mxCell id="QNlY-ML3Uit1_wFqtahG-183" value="Many" style="text;html=1;align=center;verticalAlign=middle;resizable=0;points=[];autosize=1;strokeColor=none;fillColor=none;" vertex="1" parent="1">
          <mxGeometry x="-1128.75" y="790" width="50" height="30" as="geometry" />
        </mxCell>
      </root>
    </mxGraphModel>
  </diagram>
</mxfile>
